<svg xmlns="http://www.w3.org/2000/svg" viewBox="0 0 1200 200" width="1200" height="200" preserveAspectRatio="none" fill="none">
  
  <g fill="#6f9a5f">
    <path d="M0 200 L0 150 Q20 120 40 150 Q50 110 60 150 Q80 120 90 160 Q110 130 130 160 Q150 110 170 150 Q190 120 210 160 Q230 110 250 150 Q270 130 290 160 Q310 110 330 150 Q350 130 370 160 Q390 110 410 150 Q430 130 450 160 L450 200 Z"></path>
    <path d="M450 200 L450 160 Q470 130 490 160 Q510 110 530 150 Q550 130 570 160 Q590 110 610 150 Q630 130 650 160 Q670 110 690 150 Q710 130 730 160 Q750 110 770 150 Q790 130 810 160 L810 200 Z"></path>
    <path d="M810 200 L810 160 Q830 110 850 150 Q870 130 890 160 Q910 110 930 150 Q950 130 970 160 Q990 110 1010 150 Q1030 130 1050 160 Q1070 110 1090 150 Q1110 130 1130 160 Q1150 110 1170 150 Q1190 130 1200 160 L1200 200 Z"></path>
  </g>
  <g fill="#527e44" opacity="0.7">
    <path d="M0 200 L0 175 Q40 165 80 180 Q120 170 160 180 Q200 165 240 180 Q280 170 320 180 Q360 165 400 180 L400 200 Z"></path>
    <path d="M400 200 L400 178 Q440 168 480 180 Q520 170 560 180 Q600 168 640 178 Q680 170 720 180 Q760 168 800 180 L800 200 Z"></path>
    <path d="M800 200 L800 178 Q840 168 880 180 Q920 170 960 180 Q1000 168 1040 180 Q1080 170 1120 180 Q1160 168 1200 178 L1200 200 Z"></path>
  </g>
</svg>