<svg xmlns="http://www.w3.org/2000/svg" viewBox="0 0 80 80" width="80" height="80" fill="none">
  <ellipse cx="40" cy="70" rx="26" ry="6" fill="#6e4e2c"></ellipse>
  <ellipse cx="40" cy="68" rx="24" ry="5" fill="#936e44"></ellipse>
  
  <path d="M40 66 Q40 50 40 26" stroke="#3e6534" stroke-width="3" stroke-linecap="round" fill="none"></path>
  
  <path d="M40 50 Q24 46 16 32 Q30 38 40 46 Z" fill="#527e44"></path>
  <path d="M40 50 Q26 44 18 34" stroke="#324f2b" stroke-width="0.8" fill="none" opacity="0.5"></path>
  
  <path d="M40 44 Q56 40 64 26 Q50 32 40 40 Z" fill="#6f9a5f"></path>
  
  <path d="M40 34 Q30 32 24 22 Q34 26 40 30 Z" fill="#94b787"></path>
  
  <path d="M40 30 Q50 28 56 18 Q46 22 40 28 Z" fill="#6f9a5f"></path>
  
  <circle cx="40" cy="24" r="2.5" fill="#3e6534"></circle>
</svg>