<svg xmlns="http://www.w3.org/2000/svg" viewBox="0 0 80 80" width="80" height="80" fill="none">
  <ellipse cx="40" cy="72" rx="28" ry="5" fill="#6e4e2c"></ellipse>
  <ellipse cx="40" cy="70" rx="26" ry="4" fill="#936e44"></ellipse>
  
  <path d="M40 68 Q40 50 40 28" stroke="#3e6534" stroke-width="3" stroke-linecap="round" fill="none"></path>
  
  <path d="M40 54 Q22 50 14 36 Q30 42 40 50 Z" fill="#527e44"></path>
  <path d="M40 48 Q58 44 66 30 Q50 38 40 44 Z" fill="#6f9a5f"></path>
  
  <g transform="translate(40 22)">
    <ellipse cx="0" cy="-10" rx="6" ry="9" fill="#e87aa3"></ellipse>
    <ellipse cx="9" cy="-3" rx="6" ry="9" fill="#e87aa3" transform="rotate(72)"></ellipse>
    <ellipse cx="6" cy="8" rx="6" ry="9" fill="#e87aa3" transform="rotate(144)"></ellipse>
    <ellipse cx="-6" cy="8" rx="6" ry="9" fill="#e87aa3" transform="rotate(216)"></ellipse>
    <ellipse cx="-9" cy="-3" rx="6" ry="9" fill="#e87aa3" transform="rotate(288)"></ellipse>
    <circle cx="0" cy="0" r="4.5" fill="#f3c14a"></circle>
    <circle cx="0" cy="0" r="2" fill="#c89a2e"></circle>
  </g>
</svg>