<svg xmlns="http://www.w3.org/2000/svg" viewBox="0 0 80 80" width="80" height="80" fill="none">
  
  <ellipse cx="40" cy="72" rx="28" ry="5" fill="#6e4e2c"></ellipse>
  <ellipse cx="40" cy="70" rx="26" ry="4" fill="#936e44"></ellipse>
  <path d="M40 68 Q40 50 40 30" stroke="#3e6534" stroke-width="3" stroke-linecap="round" fill="none"></path>
  <path d="M40 56 Q24 52 16 40 Q30 46 40 52 Z" fill="#527e44"></path>
  <path d="M40 50 Q56 48 64 36 Q50 42 40 46 Z" fill="#6f9a5f"></path>
  
  <g transform="translate(40 24)">
    <g>
      <ellipse cx="0" cy="-12" rx="3.5" ry="9" fill="#f3c14a"></ellipse>
      <ellipse cx="0" cy="-12" rx="3.5" ry="9" fill="#f3c14a" transform="rotate(40)"></ellipse>
      <ellipse cx="0" cy="-12" rx="3.5" ry="9" fill="#f3c14a" transform="rotate(80)"></ellipse>
      <ellipse cx="0" cy="-12" rx="3.5" ry="9" fill="#f3c14a" transform="rotate(120)"></ellipse>
      <ellipse cx="0" cy="-12" rx="3.5" ry="9" fill="#f3c14a" transform="rotate(160)"></ellipse>
      <ellipse cx="0" cy="-12" rx="3.5" ry="9" fill="#f3c14a" transform="rotate(200)"></ellipse>
      <ellipse cx="0" cy="-12" rx="3.5" ry="9" fill="#f3c14a" transform="rotate(240)"></ellipse>
      <ellipse cx="0" cy="-12" rx="3.5" ry="9" fill="#f3c14a" transform="rotate(280)"></ellipse>
      <ellipse cx="0" cy="-12" rx="3.5" ry="9" fill="#f3c14a" transform="rotate(320)"></ellipse>
    </g>
    <circle cx="0" cy="0" r="6" fill="#6e4e2c"></circle>
    <circle cx="0" cy="0" r="3" fill="#3e2a16"></circle>
  </g>
</svg>